{
    "asset" : {
        "generator" : "Khronos glTF Blender I/O v1.7.33",
        "version" : "2.0"
    },
    "scene" : 0,
    "scenes" : [
        {
            "name" : "Scene",
            "nodes" : [
                0,
                1,
                2,
                3,
                4,
                5,
                6,
                7,
                8
            ]
        }
    ],
    "nodes" : [
        {
            "mesh" : 0,
            "name" : "polygon2991",
            "translation" : [
                -0.028989514335989952,
                0,
                0.03146170824766159
            ]
        },
        {
            "mesh" : 1,
            "name" : "border",
            "translation" : [
                -0.0289900004863739,
                0,
                0.03146170824766159
            ]
        },
        {
            "mesh" : 2,
            "name" : "Curve",
            "translation" : [
                -0.028989514335989952,
                0,
                0.03146170824766159
            ]
        },
        {
            "mesh" : 3,
            "name" : "Curve.001",
            "translation" : [
                -0.028989514335989952,
                0,
                0.03146170824766159
            ]
        },
        {
            "mesh" : 4,
            "name" : "Curve.002",
            "translation" : [
                -0.028989514335989952,
                0,
                0.03146170824766159
            ]
        },
        {
            "mesh" : 5,
            "name" : "Curve.003",
            "translation" : [
                -0.028989514335989952,
                0,
                0.03146170824766159
            ]
        },
        {
            "mesh" : 6,
            "name" : "Curve.004",
            "translation" : [
                -0.028989514335989952,
                0,
                0.03146170824766159
            ]
        },
        {
            "mesh" : 7,
            "name" : "Curve.005",
            "translation" : [
                -0.028989514335989952,
                0,
                0.03146170824766159
            ]
        },
        {
            "mesh" : 8,
            "name" : "Curve.006",
            "translation" : [
                -0.028989514335989952,
                0,
                0.03146170824766159
            ]
        }
    ],
    "materials" : [
        {
            "doubleSided" : true,
            "name" : "SVGMat",
            "pbrMetallicRoughness" : {
                "baseColorFactor" : [
                    0.022173885256052017,
                    0.13013647496700287,
                    0.8796223998069763,
                    1
                ],
                "metallicFactor" : 0,
                "roughnessFactor" : 0.4000000059604645
            }
        },
        {
            "doubleSided" : true,
            "name" : "SVGMat.001",
            "pbrMetallicRoughness" : {
                "baseColorFactor" : [
                    0.019382361322641373,
                    0.07421357184648514,
                    0.7758222222328186,
                    1
                ],
                "metallicFactor" : 0,
                "roughnessFactor" : 0.4000000059604645
            }
        },
        {
            "doubleSided" : true,
            "name" : "SVGMat.002",
            "pbrMetallicRoughness" : {
                "baseColorFactor" : [
                    1,
                    1,
                    1,
                    1
                ],
                "metallicFactor" : 0,
                "roughnessFactor" : 0.4000000059604645
            }
        },
        {
            "doubleSided" : true,
            "name" : "SVGMat.003",
            "pbrMetallicRoughness" : {
                "baseColorFactor" : [
                    0,
                    0,
                    0,
                    1
                ],
                "metallicFactor" : 0,
                "roughnessFactor" : 0.4000000059604645
            }
        }
    ],
    "meshes" : [
        {
            "name" : "polygon2991",
            "primitives" : [
                {
                    "attributes" : {
                        "POSITION" : 0,
                        "NORMAL" : 1,
                        "TEXCOORD_0" : 2
                    },
                    "indices" : 3,
                    "material" : 0
                }
            ]
        },
        {
            "name" : "border",
            "primitives" : [
                {
                    "attributes" : {
                        "POSITION" : 4,
                        "NORMAL" : 5,
                        "TEXCOORD_0" : 6
                    },
                    "indices" : 7,
                    "material" : 1
                }
            ]
        },
        {
            "name" : "Curve",
            "primitives" : [
                {
                    "attributes" : {
                        "POSITION" : 8,
                        "NORMAL" : 9,
                        "TEXCOORD_0" : 10
                    },
                    "indices" : 11,
                    "material" : 2
                }
            ]
        },
        {
            "name" : "Curve.001",
            "primitives" : [
                {
                    "attributes" : {
                        "POSITION" : 12,
                        "NORMAL" : 13,
                        "TEXCOORD_0" : 14
                    },
                    "indices" : 15,
                    "material" : 2
                }
            ]
        },
        {
            "name" : "Curve.002",
            "primitives" : [
                {
                    "attributes" : {
                        "POSITION" : 16,
                        "NORMAL" : 17,
                        "TEXCOORD_0" : 18
                    },
                    "indices" : 19,
                    "material" : 2
                }
            ]
        },
        {
            "name" : "Curve.003",
            "primitives" : [
                {
                    "attributes" : {
                        "POSITION" : 20,
                        "NORMAL" : 21,
                        "TEXCOORD_0" : 22
                    },
                    "indices" : 23,
                    "material" : 2
                }
            ]
        },
        {
            "name" : "Curve.004",
            "primitives" : [
                {
                    "attributes" : {
                        "POSITION" : 24,
                        "NORMAL" : 25,
                        "TEXCOORD_0" : 26
                    },
                    "indices" : 27,
                    "material" : 3
                }
            ]
        },
        {
            "name" : "Curve.005",
            "primitives" : [
                {
                    "attributes" : {
                        "POSITION" : 28,
                        "NORMAL" : 29,
                        "TEXCOORD_0" : 30
                    },
                    "indices" : 31,
                    "material" : 3
                }
            ]
        },
        {
            "name" : "Curve.006",
            "primitives" : [
                {
                    "attributes" : {
                        "POSITION" : 32,
                        "NORMAL" : 33,
                        "TEXCOORD_0" : 34
                    },
                    "indices" : 35,
                    "material" : 3
                }
            ]
        }
    ],
    "accessors" : [
        {
            "bufferView" : 0,
            "componentType" : 5126,
            "count" : 32,
            "max" : [
                0.05411665514111519,
                0.00019999999494757503,
                -0.004796862602233887
            ],
            "min" : [
                0.004938989877700806,
                -0.00019999999494757503,
                -0.06258934736251831
            ],
            "type" : "VEC3"
        },
        {
            "bufferView" : 1,
            "componentType" : 5126,
            "count" : 32,
            "type" : "VEC3"
        },
        {
            "bufferView" : 2,
            "componentType" : 5126,
            "count" : 32,
            "type" : "VEC2"
        },
        {
            "bufferView" : 3,
            "componentType" : 5123,
            "count" : 60,
            "type" : "SCALAR"
        },
        {
            "bufferView" : 4,
            "componentType" : 5126,
            "count" : 74,
            "max" : [
                0.05955010652542114,
                0.0020000000949949026,
                -2.314150333404541e-05
            ],
            "min" : [
                0,
                -0.0020000000949949026,
                -0.06772041320800781
            ],
            "type" : "VEC3"
        },
        {
            "bufferView" : 5,
            "componentType" : 5126,
            "count" : 74,
            "type" : "VEC3"
        },
        {
            "bufferView" : 6,
            "componentType" : 5126,
            "count" : 74,
            "type" : "VEC2"
        },
        {
            "bufferView" : 7,
            "componentType" : 5123,
            "count" : 144,
            "type" : "SCALAR"
        },
        {
            "bufferView" : 8,
            "componentType" : 5126,
            "count" : 18,
            "max" : [
                0.02977505326271057,
                0.0020000000949949026,
                -0.03257887810468674
            ],
            "min" : [
                0.012423902750015259,
                -0.0020000000949949026,
                -0.04003659263253212
            ],
            "type" : "VEC3"
        },
        {
            "bufferView" : 9,
            "componentType" : 5126,
            "count" : 18,
            "type" : "VEC3"
        },
        {
            "bufferView" : 10,
            "componentType" : 5126,
            "count" : 18,
            "type" : "VEC2"
        },
        {
            "bufferView" : 11,
            "componentType" : 5123,
            "count" : 36,
            "type" : "SCALAR"
        },
        {
            "bufferView" : 12,
            "componentType" : 5126,
            "count" : 22,
            "max" : [
                0.02977505326271057,
                0.0020000000949949026,
                -0.04767347499728203
            ],
            "min" : [
                0.011081314645707607,
                -0.0020000000949949026,
                -0.055131472647190094
            ],
            "type" : "VEC3"
        },
        {
            "bufferView" : 13,
            "componentType" : 5126,
            "count" : 22,
            "type" : "VEC3"
        },
        {
            "bufferView" : 14,
            "componentType" : 5126,
            "count" : 22,
            "type" : "VEC2"
        },
        {
            "bufferView" : 15,
            "componentType" : 5123,
            "count" : 48,
            "type" : "SCALAR"
        },
        {
            "bufferView" : 16,
            "componentType" : 5126,
            "count" : 44,
            "max" : [
                0.02977505326271057,
                0.0020000000949949026,
                -0.012899048626422882
            ],
            "min" : [
                0.01342519000172615,
                -0.0020000000949949026,
                -0.028850026428699493
            ],
            "type" : "VEC3"
        },
        {
            "bufferView" : 17,
            "componentType" : 5126,
            "count" : 44,
            "type" : "VEC3"
        },
        {
            "bufferView" : 18,
            "componentType" : 5126,
            "count" : 44,
            "type" : "VEC2"
        },
        {
            "bufferView" : 19,
            "componentType" : 5123,
            "count" : 84,
            "type" : "SCALAR"
        },
        {
            "bufferView" : 20,
            "componentType" : 5126,
            "count" : 80,
            "max" : [
                0.04842439666390419,
                0.0020000000949949026,
                -0.012902714312076569
            ],
            "min" : [
                0.029749369248747826,
                -0.0020000000949949026,
                -0.055131472647190094
            ],
            "type" : "VEC3"
        },
        {
            "bufferView" : 21,
            "componentType" : 5126,
            "count" : 80,
            "type" : "VEC3"
        },
        {
            "bufferView" : 22,
            "componentType" : 5126,
            "count" : 80,
            "type" : "VEC2"
        },
        {
            "bufferView" : 23,
            "componentType" : 5123,
            "count" : 156,
            "type" : "SCALAR"
        },
        {
            "bufferView" : 24,
            "componentType" : 5126,
            "count" : 46,
            "max" : [
                0.023044083267450333,
                0.0010000000474974513,
                -0.07275424152612686
            ],
            "min" : [
                0.014014707878232002,
                -0.0010000000474974513,
                -0.08408617973327637
            ],
            "type" : "VEC3"
        },
        {
            "bufferView" : 25,
            "componentType" : 5126,
            "count" : 46,
            "type" : "VEC3"
        },
        {
            "bufferView" : 26,
            "componentType" : 5126,
            "count" : 46,
            "type" : "VEC2"
        },
        {
            "bufferView" : 27,
            "componentType" : 5123,
            "count" : 84,
            "type" : "SCALAR"
        },
        {
            "bufferView" : 28,
            "componentType" : 5126,
            "count" : 72,
            "max" : [
                0.03387921303510666,
                0.0010000000474974513,
                -0.07259002327919006
            ],
            "min" : [
                0.024849949404597282,
                -0.0010000000474974513,
                -0.08408617973327637
            ],
            "type" : "VEC3"
        },
        {
            "bufferView" : 29,
            "componentType" : 5126,
            "count" : 72,
            "type" : "VEC3"
        },
        {
            "bufferView" : 30,
            "componentType" : 5126,
            "count" : 72,
            "type" : "VEC2"
        },
        {
            "bufferView" : 31,
            "componentType" : 5123,
            "count" : 132,
            "type" : "SCALAR"
        },
        {
            "bufferView" : 32,
            "componentType" : 5126,
            "count" : 72,
            "max" : [
                0.044714510440826416,
                0.0010000000474974513,
                -0.07259002327919006
            ],
            "min" : [
                0.03568518906831741,
                -0.0010000000474974513,
                -0.08408617973327637
            ],
            "type" : "VEC3"
        },
        {
            "bufferView" : 33,
            "componentType" : 5126,
            "count" : 72,
            "type" : "VEC3"
        },
        {
            "bufferView" : 34,
            "componentType" : 5126,
            "count" : 72,
            "type" : "VEC2"
        },
        {
            "bufferView" : 35,
            "componentType" : 5123,
            "count" : 132,
            "type" : "SCALAR"
        }
    ],
    "bufferViews" : [
        {
            "buffer" : 0,
            "byteLength" : 384,
            "byteOffset" : 0
        },
        {
            "buffer" : 0,
            "byteLength" : 384,
            "byteOffset" : 384
        },
        {
            "buffer" : 0,
            "byteLength" : 256,
            "byteOffset" : 768
        },
        {
            "buffer" : 0,
            "byteLength" : 120,
            "byteOffset" : 1024
        },
        {
            "buffer" : 0,
            "byteLength" : 888,
            "byteOffset" : 1144
        },
        {
            "buffer" : 0,
            "byteLength" : 888,
            "byteOffset" : 2032
        },
        {
            "buffer" : 0,
            "byteLength" : 592,
            "byteOffset" : 2920
        },
        {
            "buffer" : 0,
            "byteLength" : 288,
            "byteOffset" : 3512
        },
        {
            "buffer" : 0,
            "byteLength" : 216,
            "byteOffset" : 3800
        },
        {
            "buffer" : 0,
            "byteLength" : 216,
            "byteOffset" : 4016
        },
        {
            "buffer" : 0,
            "byteLength" : 144,
            "byteOffset" : 4232
        },
        {
            "buffer" : 0,
            "byteLength" : 72,
            "byteOffset" : 4376
        },
        {
            "buffer" : 0,
            "byteLength" : 264,
            "byteOffset" : 4448
        },
        {
            "buffer" : 0,
            "byteLength" : 264,
            "byteOffset" : 4712
        },
        {
            "buffer" : 0,
            "byteLength" : 176,
            "byteOffset" : 4976
        },
        {
            "buffer" : 0,
            "byteLength" : 96,
            "byteOffset" : 5152
        },
        {
            "buffer" : 0,
            "byteLength" : 528,
            "byteOffset" : 5248
        },
        {
            "buffer" : 0,
            "byteLength" : 528,
            "byteOffset" : 5776
        },
        {
            "buffer" : 0,
            "byteLength" : 352,
            "byteOffset" : 6304
        },
        {
            "buffer" : 0,
            "byteLength" : 168,
            "byteOffset" : 6656
        },
        {
            "buffer" : 0,
            "byteLength" : 960,
            "byteOffset" : 6824
        },
        {
            "buffer" : 0,
            "byteLength" : 960,
            "byteOffset" : 7784
        },
        {
            "buffer" : 0,
            "byteLength" : 640,
            "byteOffset" : 8744
        },
        {
            "buffer" : 0,
            "byteLength" : 312,
            "byteOffset" : 9384
        },
        {
            "buffer" : 0,
            "byteLength" : 552,
            "byteOffset" : 9696
        },
        {
            "buffer" : 0,
            "byteLength" : 552,
            "byteOffset" : 10248
        },
        {
            "buffer" : 0,
            "byteLength" : 368,
            "byteOffset" : 10800
        },
        {
            "buffer" : 0,
            "byteLength" : 168,
            "byteOffset" : 11168
        },
        {
            "buffer" : 0,
            "byteLength" : 864,
            "byteOffset" : 11336
        },
        {
            "buffer" : 0,
            "byteLength" : 864,
            "byteOffset" : 12200
        },
        {
            "buffer" : 0,
            "byteLength" : 576,
            "byteOffset" : 13064
        },
        {
            "buffer" : 0,
            "byteLength" : 264,
            "byteOffset" : 13640
        },
        {
            "buffer" : 0,
            "byteLength" : 864,
            "byteOffset" : 13904
        },
        {
            "buffer" : 0,
            "byteLength" : 864,
            "byteOffset" : 14768
        },
        {
            "buffer" : 0,
            "byteLength" : 576,
            "byteOffset" : 15632
        },
        {
            "buffer" : 0,
            "byteLength" : 264,
            "byteOffset" : 16208
        }
    ],
    "buffers" : [
        {
            "byteLength" : 16472,
            "uri" : "data:application/octet-stream;base64,"
        }
    ]
}
