{
    "asset" : {
        "generator" : "Khronos glTF Blender I/O v1.7.33",
        "version" : "2.0"
    },
    "scene" : 0,
    "scenes" : [
        {
            "name" : "Scene",
            "nodes" : [
                0,
                1,
                2,
                3,
                4,
                5
            ]
        }
    ],
    "nodes" : [
        {
            "mesh" : 0,
            "name" : "Vector",
            "translation" : [
                -0.029460879042744637,
                0,
                0.033201731741428375
            ]
        },
        {
            "mesh" : 1,
            "name" : "Vector_2",
            "translation" : [
                -0.029460879042744637,
                0,
                0.033201731741428375
            ]
        },
        {
            "mesh" : 2,
            "name" : "name",
            "translation" : [
                -0.029460879042744637,
                0,
                0.033201731741428375
            ]
        },
        {
            "mesh" : 3,
            "name" : "Vector_3",
            "translation" : [
                -0.029460879042744637,
                0,
                0.033201731741428375
            ]
        },
        {
            "mesh" : 4,
            "name" : "Vector_4",
            "translation" : [
                -0.029460879042744637,
                0,
                0.033201731741428375
            ]
        },
        {
            "mesh" : 5,
            "name" : "border",
            "translation" : [
                -0.029460879042744637,
                0,
                0.033201731741428375
            ]
        }
    ],
    "materials" : [
        {
            "doubleSided" : true,
            "name" : "SVGMat",
            "pbrMetallicRoughness" : {
                "baseColorFactor" : [
                    0.8796223998069763,
                    0.13013647496700287,
                    0.022173885256052017,
                    1
                ],
                "metallicFactor" : 0,
                "roughnessFactor" : 0.4000000059604645
            }
        },
        {
            "doubleSided" : true,
            "name" : "SVGMat.001",
            "pbrMetallicRoughness" : {
                "baseColorFactor" : [
                    0.8796223998069763,
                    0.13013647496700287,
                    0.022173885256052017,
                    1
                ],
                "metallicFactor" : 0,
                "roughnessFactor" : 0.4000000059604645
            }
        },
        {
            "doubleSided" : true,
            "name" : "SVGMat.002",
            "pbrMetallicRoughness" : {
                "baseColorFactor" : [
                    0,
                    0,
                    0,
                    1
                ],
                "metallicFactor" : 0,
                "roughnessFactor" : 0.4000000059604645
            }
        },
        {
            "doubleSided" : true,
            "name" : "SVGMat.003",
            "pbrMetallicRoughness" : {
                "baseColorFactor" : [
                    1,
                    1,
                    1,
                    1
                ],
                "metallicFactor" : 0,
                "roughnessFactor" : 0.4000000059604645
            }
        },
        {
            "doubleSided" : true,
            "name" : "SVGMat.004",
            "pbrMetallicRoughness" : {
                "baseColorFactor" : [
                    0.7758222222328186,
                    0.07421357184648514,
                    0.019382361322641373,
                    1
                ],
                "metallicFactor" : 0,
                "roughnessFactor" : 0.4000000059604645
            }
        }
    ],
    "meshes" : [
        {
            "name" : "Vector",
            "primitives" : [
                {
                    "attributes" : {
                        "POSITION" : 0,
                        "NORMAL" : 1,
                        "TEXCOORD_0" : 2
                    },
                    "indices" : 3,
                    "material" : 0
                }
            ]
        },
        {
            "name" : "Vector_2",
            "primitives" : [
                {
                    "attributes" : {
                        "POSITION" : 4,
                        "NORMAL" : 5,
                        "TEXCOORD_0" : 6
                    },
                    "indices" : 7,
                    "material" : 1
                }
            ]
        },
        {
            "name" : "name",
            "primitives" : [
                {
                    "attributes" : {
                        "POSITION" : 8,
                        "NORMAL" : 9,
                        "TEXCOORD_0" : 10
                    },
                    "indices" : 11,
                    "material" : 2
                }
            ]
        },
        {
            "name" : "Vector_3",
            "primitives" : [
                {
                    "attributes" : {
                        "POSITION" : 12,
                        "NORMAL" : 13,
                        "TEXCOORD_0" : 14
                    },
                    "indices" : 15,
                    "material" : 3
                }
            ]
        },
        {
            "name" : "Vector_4",
            "primitives" : [
                {
                    "attributes" : {
                        "POSITION" : 16,
                        "NORMAL" : 17,
                        "TEXCOORD_0" : 18
                    },
                    "indices" : 19,
                    "material" : 3
                }
            ]
        },
        {
            "name" : "border",
            "primitives" : [
                {
                    "attributes" : {
                        "POSITION" : 20,
                        "NORMAL" : 21,
                        "TEXCOORD_0" : 22
                    },
                    "indices" : 23,
                    "material" : 4
                }
            ]
        }
    ],
    "accessors" : [
        {
            "bufferView" : 0,
            "componentType" : 5126,
            "count" : 22,
            "max" : [
                0.054187774658203125,
                0.0005000000237487257,
                -0.0052201151847839355
            ],
            "min" : [
                0.029633939266204834,
                -0.0005000000237487257,
                -0.06235921382904053
            ],
            "type" : "VEC3"
        },
        {
            "bufferView" : 1,
            "componentType" : 5126,
            "count" : 22,
            "type" : "VEC3"
        },
        {
            "bufferView" : 2,
            "componentType" : 5126,
            "count" : 22,
            "type" : "VEC2"
        },
        {
            "bufferView" : 3,
            "componentType" : 5123,
            "count" : 36,
            "type" : "SCALAR"
        },
        {
            "bufferView" : 4,
            "componentType" : 5126,
            "count" : 18,
            "max" : [
                0.029633939266204834,
                0.0005000000237487257,
                -0.004796862602233887
            ],
            "min" : [
                0.005080103874206543,
                -0.0005000000237487257,
                -0.06235921382904053
            ],
            "type" : "VEC3"
        },
        {
            "bufferView" : 5,
            "componentType" : 5126,
            "count" : 18,
            "type" : "VEC3"
        },
        {
            "bufferView" : 6,
            "componentType" : 5126,
            "count" : 18,
            "type" : "VEC2"
        },
        {
            "bufferView" : 7,
            "componentType" : 5123,
            "count" : 36,
            "type" : "SCALAR"
        },
        {
            "bufferView" : 8,
            "componentType" : 5126,
            "count" : 208,
            "max" : [
                0.05414854362607002,
                0.0010000000474974513,
                -0.07301998883485794
            ],
            "min" : [
                0.00550643727183342,
                -0.0010000000474974513,
                -0.08436834812164307
            ],
            "type" : "VEC3"
        },
        {
            "bufferView" : 9,
            "componentType" : 5126,
            "count" : 208,
            "type" : "VEC3"
        },
        {
            "bufferView" : 10,
            "componentType" : 5126,
            "count" : 208,
            "type" : "VEC2"
        },
        {
            "bufferView" : 11,
            "componentType" : 5123,
            "count" : 420,
            "type" : "SCALAR"
        },
        {
            "bufferView" : 12,
            "componentType" : 5126,
            "count" : 100,
            "max" : [
                0.02977505326271057,
                0.001500000013038516,
                -0.013123087584972382
            ],
            "min" : [
                0.01105512399226427,
                -0.001500000013038516,
                -0.05538993701338768
            ],
            "type" : "VEC3"
        },
        {
            "bufferView" : 13,
            "componentType" : 5126,
            "count" : 100,
            "type" : "VEC3"
        },
        {
            "bufferView" : 14,
            "componentType" : 5126,
            "count" : 100,
            "type" : "VEC2"
        },
        {
            "bufferView" : 15,
            "componentType" : 5123,
            "count" : 180,
            "type" : "SCALAR"
        },
        {
            "bufferView" : 16,
            "componentType" : 5126,
            "count" : 92,
            "max" : [
                0.04845036193728447,
                0.001500000013038516,
                -0.013126753270626068
            ],
            "min" : [
                0.029749087989330292,
                -0.001500000013038516,
                -0.05538993701338768
            ],
            "type" : "VEC3"
        },
        {
            "bufferView" : 17,
            "componentType" : 5126,
            "count" : 92,
            "type" : "VEC3"
        },
        {
            "bufferView" : 18,
            "componentType" : 5126,
            "count" : 92,
            "type" : "VEC2"
        },
        {
            "bufferView" : 19,
            "componentType" : 5123,
            "count" : 180,
            "type" : "SCALAR"
        },
        {
            "bufferView" : 20,
            "componentType" : 5126,
            "count" : 91,
            "max" : [
                0.05955010652542114,
                0.001843103440478444,
                -2.314150333404541e-05
            ],
            "min" : [
                0,
                -0.0012066822964698076,
                -0.06772041320800781
            ],
            "type" : "VEC3"
        },
        {
            "bufferView" : 21,
            "componentType" : 5126,
            "count" : 91,
            "type" : "VEC3"
        },
        {
            "bufferView" : 22,
            "componentType" : 5126,
            "count" : 91,
            "type" : "VEC2"
        },
        {
            "bufferView" : 23,
            "componentType" : 5123,
            "count" : 144,
            "type" : "SCALAR"
        }
    ],
    "bufferViews" : [
        {
            "buffer" : 0,
            "byteLength" : 264,
            "byteOffset" : 0
        },
        {
            "buffer" : 0,
            "byteLength" : 264,
            "byteOffset" : 264
        },
        {
            "buffer" : 0,
            "byteLength" : 176,
            "byteOffset" : 528
        },
        {
            "buffer" : 0,
            "byteLength" : 72,
            "byteOffset" : 704
        },
        {
            "buffer" : 0,
            "byteLength" : 216,
            "byteOffset" : 776
        },
        {
            "buffer" : 0,
            "byteLength" : 216,
            "byteOffset" : 992
        },
        {
            "buffer" : 0,
            "byteLength" : 144,
            "byteOffset" : 1208
        },
        {
            "buffer" : 0,
            "byteLength" : 72,
            "byteOffset" : 1352
        },
        {
            "buffer" : 0,
            "byteLength" : 2496,
            "byteOffset" : 1424
        },
        {
            "buffer" : 0,
            "byteLength" : 2496,
            "byteOffset" : 3920
        },
        {
            "buffer" : 0,
            "byteLength" : 1664,
            "byteOffset" : 6416
        },
        {
            "buffer" : 0,
            "byteLength" : 840,
            "byteOffset" : 8080
        },
        {
            "buffer" : 0,
            "byteLength" : 1200,
            "byteOffset" : 8920
        },
        {
            "buffer" : 0,
            "byteLength" : 1200,
            "byteOffset" : 10120
        },
        {
            "buffer" : 0,
            "byteLength" : 800,
            "byteOffset" : 11320
        },
        {
            "buffer" : 0,
            "byteLength" : 360,
            "byteOffset" : 12120
        },
        {
            "buffer" : 0,
            "byteLength" : 1104,
            "byteOffset" : 12480
        },
        {
            "buffer" : 0,
            "byteLength" : 1104,
            "byteOffset" : 13584
        },
        {
            "buffer" : 0,
            "byteLength" : 736,
            "byteOffset" : 14688
        },
        {
            "buffer" : 0,
            "byteLength" : 360,
            "byteOffset" : 15424
        },
        {
            "buffer" : 0,
            "byteLength" : 1092,
            "byteOffset" : 15784
        },
        {
            "buffer" : 0,
            "byteLength" : 1092,
            "byteOffset" : 16876
        },
        {
            "buffer" : 0,
            "byteLength" : 728,
            "byteOffset" : 17968
        },
        {
            "buffer" : 0,
            "byteLength" : 288,
            "byteOffset" : 18696
        }
    ],
    "buffers" : [
        {
            "byteLength" : 18984,
            "uri" : "data:application/octet-stream;base64,"
        }
    ]
}
