{
    "asset" : {
        "generator" : "Khronos glTF Blender I/O v1.7.33",
        "version" : "2.0"
    },
    "scene" : 0,
    "scenes" : [
        {
            "name" : "Scene",
            "nodes" : [
                0,
                1,
                2,
                3,
                4,
                5,
                6
            ]
        }
    ],
    "nodes" : [
        {
            "mesh" : 0,
            "name" : "backj",
            "translation" : [
                -0.030354507267475128,
                0,
                0.03389354422688484
            ]
        },
        {
            "mesh" : 1,
            "name" : "border",
            "translation" : [
                -0.030354507267475128,
                0,
                0.03389354422688484
            ]
        },
        {
            "mesh" : 2,
            "name" : "s",
            "scale" : [
                1.0108280181884766,
                1.0108280181884766,
                1.0108280181884766
            ],
            "translation" : [
                -0.030354507267475128,
                0,
                0.03389354422688484
            ]
        },
        {
            "mesh" : 3,
            "name" : "j",
            "translation" : [
                -0.030354507267475128,
                0,
                0.03389354422688484
            ]
        },
        {
            "mesh" : 4,
            "name" : "backs.001",
            "scale" : [
                -1,
                1,
                1
            ],
            "translation" : [
                0.02935221791267395,
                0,
                0.03389354422688484
            ]
        },
        {
            "mesh" : 5,
            "name" : "backj.001",
            "scale" : [
                1,
                -1,
                1
            ],
            "translation" : [
                -0.030354507267475128,
                0,
                0.03389354422688484
            ]
        },
        {
            "mesh" : 6,
            "name" : "backs.002",
            "scale" : [
                -1,
                -1,
                1
            ],
            "translation" : [
                0.02935221791267395,
                0,
                0.03389354422688484
            ]
        }
    ],
    "materials" : [
        {
            "doubleSided" : true,
            "name" : "SVGMat.003",
            "pbrMetallicRoughness" : {
                "baseColorFactor" : [
                    0.9822505712509155,
                    0.68668532371521,
                    0.045186202973127365,
                    1
                ],
                "metallicFactor" : 0,
                "roughnessFactor" : 0.4000000059604645
            }
        },
        {
            "doubleSided" : true,
            "name" : "SVGMat.004",
            "pbrMetallicRoughness" : {
                "baseColorFactor" : [
                    0.6583748459815979,
                    0.4793201684951782,
                    0.02955683507025242,
                    1
                ],
                "metallicFactor" : 0,
                "roughnessFactor" : 0.4000000059604645
            }
        },
        {
            "doubleSided" : true,
            "name" : "SVGMat.005",
            "pbrMetallicRoughness" : {
                "metallicFactor" : 0,
                "roughnessFactor" : 0.4000000059604645
            }
        },
        {
            "doubleSided" : true,
            "name" : "SVGMat.006",
            "pbrMetallicRoughness" : {
                "baseColorFactor" : [
                    0.9822505712509155,
                    0.68668532371521,
                    0.045186202973127365,
                    1
                ],
                "metallicFactor" : 0,
                "roughnessFactor" : 0.4000000059604645
            }
        },
        {
            "doubleSided" : true,
            "name" : "SVGMat.002",
            "pbrMetallicRoughness" : {
                "baseColorFactor" : [
                    0.9822505712509155,
                    0.68668532371521,
                    0.045186202973127365,
                    1
                ],
                "metallicFactor" : 0,
                "roughnessFactor" : 0.4000000059604645
            }
        },
        {
            "doubleSided" : true,
            "name" : "SVGMat.001",
            "pbrMetallicRoughness" : {
                "baseColorFactor" : [
                    0.9822505712509155,
                    0.68668532371521,
                    0.045186202973127365,
                    1
                ],
                "metallicFactor" : 0,
                "roughnessFactor" : 0.4000000059604645
            }
        }
    ],
    "meshes" : [
        {
            "name" : "Curve.001",
            "primitives" : [
                {
                    "attributes" : {
                        "POSITION" : 0,
                        "NORMAL" : 1,
                        "TEXCOORD_0" : 2
                    },
                    "indices" : 3,
                    "material" : 0
                }
            ]
        },
        {
            "name" : "Curve.002",
            "primitives" : [
                {
                    "attributes" : {
                        "POSITION" : 4,
                        "NORMAL" : 5,
                        "TEXCOORD_0" : 6
                    },
                    "indices" : 7,
                    "material" : 1
                }
            ]
        },
        {
            "name" : "Curve.003",
            "primitives" : [
                {
                    "attributes" : {
                        "POSITION" : 8,
                        "NORMAL" : 9,
                        "TEXCOORD_0" : 10
                    },
                    "indices" : 11,
                    "material" : 2
                }
            ]
        },
        {
            "name" : "Curve.004",
            "primitives" : [
                {
                    "attributes" : {
                        "POSITION" : 12,
                        "NORMAL" : 13,
                        "TEXCOORD_0" : 14
                    },
                    "indices" : 15,
                    "material" : 2
                }
            ]
        },
        {
            "name" : "Curve.005",
            "primitives" : [
                {
                    "attributes" : {
                        "POSITION" : 16,
                        "NORMAL" : 17,
                        "TEXCOORD_0" : 18
                    },
                    "indices" : 3,
                    "material" : 3
                }
            ]
        },
        {
            "name" : "Curve.007",
            "primitives" : [
                {
                    "attributes" : {
                        "POSITION" : 19,
                        "NORMAL" : 20,
                        "TEXCOORD_0" : 21
                    },
                    "indices" : 3,
                    "material" : 4
                }
            ]
        },
        {
            "name" : "Curve.006",
            "primitives" : [
                {
                    "attributes" : {
                        "POSITION" : 22,
                        "NORMAL" : 23,
                        "TEXCOORD_0" : 24
                    },
                    "indices" : 3,
                    "material" : 5
                }
            ]
        }
    ],
    "accessors" : [
        {
            "bufferView" : 0,
            "componentType" : 5126,
            "count" : 6,
            "max" : [
                0.029938481748104095,
                0.0007826038636267185,
                -0.003520206082612276
            ],
            "min" : [
                0.005080103874206543,
                0,
                -0.06316100805997849
            ],
            "type" : "VEC3"
        },
        {
            "bufferView" : 1,
            "componentType" : 5126,
            "count" : 6,
            "type" : "VEC3"
        },
        {
            "bufferView" : 2,
            "componentType" : 5126,
            "count" : 6,
            "type" : "VEC2"
        },
        {
            "bufferView" : 3,
            "componentType" : 5123,
            "count" : 6,
            "type" : "SCALAR"
        },
        {
            "bufferView" : 4,
            "componentType" : 5126,
            "count" : 79,
            "max" : [
                0.05954925715923309,
                0.0031006343197077513,
                -2.314150333404541e-05
            ],
            "min" : [
                0,
                -0.001999996602535248,
                -0.06772041320800781
            ],
            "type" : "VEC3"
        },
        {
            "bufferView" : 5,
            "componentType" : 5126,
            "count" : 79,
            "type" : "VEC3"
        },
        {
            "bufferView" : 6,
            "componentType" : 5126,
            "count" : 79,
            "type" : "VEC2"
        },
        {
            "bufferView" : 7,
            "componentType" : 5123,
            "count" : 120,
            "type" : "SCALAR"
        },
        {
            "bufferView" : 8,
            "componentType" : 5126,
            "count" : 64,
            "max" : [
                0.05123482272028923,
                0.0024999999441206455,
                -0.014752048999071121
            ],
            "min" : [
                0.03216693550348282,
                -0.0024999999441206455,
                -0.05466420203447342
            ],
            "type" : "VEC3"
        },
        {
            "bufferView" : 9,
            "componentType" : 5126,
            "count" : 64,
            "type" : "VEC3"
        },
        {
            "bufferView" : 10,
            "componentType" : 5126,
            "count" : 64,
            "type" : "VEC2"
        },
        {
            "bufferView" : 11,
            "componentType" : 5123,
            "count" : 132,
            "type" : "SCALAR"
        },
        {
            "bufferView" : 12,
            "componentType" : 5126,
            "count" : 176,
            "max" : [
                0.027545057237148285,
                0.0024999999441206455,
                -0.014752048999071121
            ],
            "min" : [
                0.010056489147245884,
                -0.0024999999441206455,
                -0.05464097857475281
            ],
            "type" : "VEC3"
        },
        {
            "bufferView" : 13,
            "componentType" : 5126,
            "count" : 176,
            "type" : "VEC3"
        },
        {
            "bufferView" : 14,
            "componentType" : 5126,
            "count" : 176,
            "type" : "VEC2"
        },
        {
            "bufferView" : 15,
            "componentType" : 5123,
            "count" : 324,
            "type" : "SCALAR"
        },
        {
            "bufferView" : 16,
            "componentType" : 5126,
            "count" : 6,
            "max" : [
                0.029938481748104095,
                0.0007867134409025311,
                -0.0035180707927793264
            ],
            "min" : [
                0.005080103874206543,
                0,
                -0.0631580725312233
            ],
            "type" : "VEC3"
        },
        {
            "bufferView" : 17,
            "componentType" : 5126,
            "count" : 6,
            "type" : "VEC3"
        },
        {
            "bufferView" : 18,
            "componentType" : 5126,
            "count" : 6,
            "type" : "VEC2"
        },
        {
            "bufferView" : 19,
            "componentType" : 5126,
            "count" : 6,
            "max" : [
                0.029938481748104095,
                0.0007826038636267185,
                -0.003520206082612276
            ],
            "min" : [
                0.005080103874206543,
                0,
                -0.06316100805997849
            ],
            "type" : "VEC3"
        },
        {
            "bufferView" : 20,
            "componentType" : 5126,
            "count" : 6,
            "type" : "VEC3"
        },
        {
            "bufferView" : 21,
            "componentType" : 5126,
            "count" : 6,
            "type" : "VEC2"
        },
        {
            "bufferView" : 22,
            "componentType" : 5126,
            "count" : 6,
            "max" : [
                0.029938481748104095,
                0.0007867134409025311,
                -0.0035180707927793264
            ],
            "min" : [
                0.005080103874206543,
                0,
                -0.0631580725312233
            ],
            "type" : "VEC3"
        },
        {
            "bufferView" : 23,
            "componentType" : 5126,
            "count" : 6,
            "type" : "VEC3"
        },
        {
            "bufferView" : 24,
            "componentType" : 5126,
            "count" : 6,
            "type" : "VEC2"
        }
    ],
    "bufferViews" : [
        {
            "buffer" : 0,
            "byteLength" : 72,
            "byteOffset" : 0
        },
        {
            "buffer" : 0,
            "byteLength" : 72,
            "byteOffset" : 72
        },
        {
            "buffer" : 0,
            "byteLength" : 48,
            "byteOffset" : 144
        },
        {
            "buffer" : 0,
            "byteLength" : 12,
            "byteOffset" : 192
        },
        {
            "buffer" : 0,
            "byteLength" : 948,
            "byteOffset" : 204
        },
        {
            "buffer" : 0,
            "byteLength" : 948,
            "byteOffset" : 1152
        },
        {
            "buffer" : 0,
            "byteLength" : 632,
            "byteOffset" : 2100
        },
        {
            "buffer" : 0,
            "byteLength" : 240,
            "byteOffset" : 2732
        },
        {
            "buffer" : 0,
            "byteLength" : 768,
            "byteOffset" : 2972
        },
        {
            "buffer" : 0,
            "byteLength" : 768,
            "byteOffset" : 3740
        },
        {
            "buffer" : 0,
            "byteLength" : 512,
            "byteOffset" : 4508
        },
        {
            "buffer" : 0,
            "byteLength" : 264,
            "byteOffset" : 5020
        },
        {
            "buffer" : 0,
            "byteLength" : 2112,
            "byteOffset" : 5284
        },
        {
            "buffer" : 0,
            "byteLength" : 2112,
            "byteOffset" : 7396
        },
        {
            "buffer" : 0,
            "byteLength" : 1408,
            "byteOffset" : 9508
        },
        {
            "buffer" : 0,
            "byteLength" : 648,
            "byteOffset" : 10916
        },
        {
            "buffer" : 0,
            "byteLength" : 72,
            "byteOffset" : 11564
        },
        {
            "buffer" : 0,
            "byteLength" : 72,
            "byteOffset" : 11636
        },
        {
            "buffer" : 0,
            "byteLength" : 48,
            "byteOffset" : 11708
        },
        {
            "buffer" : 0,
            "byteLength" : 72,
            "byteOffset" : 11756
        },
        {
            "buffer" : 0,
            "byteLength" : 72,
            "byteOffset" : 11828
        },
        {
            "buffer" : 0,
            "byteLength" : 48,
            "byteOffset" : 11900
        },
        {
            "buffer" : 0,
            "byteLength" : 72,
            "byteOffset" : 11948
        },
        {
            "buffer" : 0,
            "byteLength" : 72,
            "byteOffset" : 12020
        },
        {
            "buffer" : 0,
            "byteLength" : 48,
            "byteOffset" : 12092
        }
    ],
    "buffers" : [
        {
            "byteLength" : 12140,
            "uri" : "data:application/octet-stream;base64,"
        }
    ]
}
