{
    "asset" : {
        "generator" : "Khronos glTF Blender I/O v1.7.33",
        "version" : "2.0"
    },
    "scene" : 0,
    "scenes" : [
        {
            "name" : "Scene",
            "nodes" : [
                0,
                1
            ]
        }
    ],
    "nodes" : [
        {
            "mesh" : 0,
            "name" : "Curve",
            "scale" : [
                0.11059082299470901,
                0.11059082299470901,
                0.11059082299470901
            ],
            "translation" : [
                -0.03466637805104256,
                0,
                0.03445322811603546
            ]
        },
        {
            "mesh" : 1,
            "name" : "Curve.001",
            "scale" : [
                0.11059082299470901,
                0.11059082299470901,
                0.11059082299470901
            ],
            "translation" : [
                -0.03466637805104256,
                0,
                0.03445322811603546
            ]
        }
    ],
    "materials" : [
        {
            "doubleSided" : true,
            "name" : "SVGMat.013",
            "pbrMetallicRoughness" : {
                "baseColorFactor" : [
                    0.2622506618499756,
                    0.577580451965332,
                    0.07036009430885315,
                    1
                ],
                "metallicFactor" : 0,
                "roughnessFactor" : 0.4000000059604645
            }
        }
    ],
    "meshes" : [
        {
            "name" : "Curve.001",
            "primitives" : [
                {
                    "attributes" : {
                        "POSITION" : 0,
                        "NORMAL" : 1,
                        "TEXCOORD_0" : 2
                    },
                    "indices" : 3,
                    "material" : 0
                }
            ]
        },
        {
            "name" : "Curve.002",
            "primitives" : [
                {
                    "attributes" : {
                        "POSITION" : 4,
                        "NORMAL" : 5,
                        "TEXCOORD_0" : 6
                    },
                    "indices" : 7,
                    "material" : 0
                }
            ]
        }
    ],
    "accessors" : [
        {
            "bufferView" : 0,
            "componentType" : 5126,
            "count" : 3174,
            "max" : [
                0.639076292514801,
                0.009999999776482582,
                -0.0016206942964345217
            ],
            "min" : [
                0.0015812774654477835,
                -0.009999999776482582,
                -0.7039588689804077
            ],
            "type" : "VEC3"
        },
        {
            "bufferView" : 1,
            "componentType" : 5126,
            "count" : 3174,
            "type" : "VEC3"
        },
        {
            "bufferView" : 2,
            "componentType" : 5126,
            "count" : 3174,
            "type" : "VEC2"
        },
        {
            "bufferView" : 3,
            "componentType" : 5123,
            "count" : 5892,
            "type" : "SCALAR"
        },
        {
            "bufferView" : 4,
            "componentType" : 5126,
            "count" : 2342,
            "max" : [
                0.5330766439437866,
                0.009999999776482582,
                -0.20618198812007904
            ],
            "min" : [
                0.262271910905838,
                -0.009999999776482582,
                -0.49128466844558716
            ],
            "type" : "VEC3"
        },
        {
            "bufferView" : 5,
            "componentType" : 5126,
            "count" : 2342,
            "type" : "VEC3"
        },
        {
            "bufferView" : 6,
            "componentType" : 5126,
            "count" : 2342,
            "type" : "VEC2"
        },
        {
            "bufferView" : 7,
            "componentType" : 5123,
            "count" : 4164,
            "type" : "SCALAR"
        }
    ],
    "bufferViews" : [
        {
            "buffer" : 0,
            "byteLength" : 38088,
            "byteOffset" : 0
        },
        {
            "buffer" : 0,
            "byteLength" : 38088,
            "byteOffset" : 38088
        },
        {
            "buffer" : 0,
            "byteLength" : 25392,
            "byteOffset" : 76176
        },
        {
            "buffer" : 0,
            "byteLength" : 11784,
            "byteOffset" : 101568
        },
        {
            "buffer" : 0,
            "byteLength" : 28104,
            "byteOffset" : 113352
        },
        {
            "buffer" : 0,
            "byteLength" : 28104,
            "byteOffset" : 141456
        },
        {
            "buffer" : 0,
            "byteLength" : 18736,
            "byteOffset" : 169560
        },
        {
            "buffer" : 0,
            "byteLength" : 8328,
            "byteOffset" : 188296
        }
    ],
    "buffers" : [
        {
            "byteLength" : 196624,
            "uri" : "data:application/octet-stream;base64,"
        }
    ]
}
