{
    "asset" : {
        "generator" : "Khronos glTF Blender I/O v1.7.33",
        "version" : "2.0"
    },
    "scene" : 0,
    "scenes" : [
        {
            "name" : "Scene",
            "nodes" : [
                0
            ]
        }
    ],
    "nodes" : [
        {
            "mesh" : 0,
            "name" : "Curve.002",
            "scale" : [
                0.6521070599555969,
                0.6521070599555969,
                0.6521070599555969
            ],
            "translation" : [
                -0.04991358146071434,
                0,
                0.025130970403552055
            ]
        }
    ],
    "materials" : [
        {
            "doubleSided" : true,
            "name" : "SVGMat.010",
            "pbrMetallicRoughness" : {
                "baseColorFactor" : [
                    0.6104955673217773,
                    0.13563333451747894,
                    0.31854677200317383,
                    1
                ],
                "metallicFactor" : 0,
                "roughnessFactor" : 0.4000000059604645
            }
        }
    ],
    "meshes" : [
        {
            "name" : "Curve",
            "primitives" : [
                {
                    "attributes" : {
                        "POSITION" : 0,
                        "NORMAL" : 1,
                        "TEXCOORD_0" : 2
                    },
                    "indices" : 3,
                    "material" : 0
                }
            ]
        }
    ],
    "accessors" : [
        {
            "bufferView" : 0,
            "componentType" : 5126,
            "count" : 9182,
            "max" : [
                0.1544916033744812,
                0.0020000000949949026,
                -2.3644155589863658e-05
            ],
            "min" : [
                9.504961781203747e-06,
                -0.0020000000949949026,
                -0.11586462706327438
            ],
            "type" : "VEC3"
        },
        {
            "bufferView" : 1,
            "componentType" : 5126,
            "count" : 9182,
            "type" : "VEC3"
        },
        {
            "bufferView" : 2,
            "componentType" : 5126,
            "count" : 9182,
            "type" : "VEC2"
        },
        {
            "bufferView" : 3,
            "componentType" : 5123,
            "count" : 16584,
            "type" : "SCALAR"
        }
    ],
    "bufferViews" : [
        {
            "buffer" : 0,
            "byteLength" : 110184,
            "byteOffset" : 0
        },
        {
            "buffer" : 0,
            "byteLength" : 110184,
            "byteOffset" : 110184
        },
        {
            "buffer" : 0,
            "byteLength" : 73456,
            "byteOffset" : 220368
        },
        {
            "buffer" : 0,
            "byteLength" : 33168,
            "byteOffset" : 293824
        }
    ],
    "buffers" : [
        {
            "byteLength" : 326992,
            "uri" : "data:application/octet-stream;base64,"
        }
    ]
}
