<svg id="visual" viewBox="0 0 960 300" width="960" height="300" xmlns="http://www.w3.org/2000/svg" xmlns:xlink="http://www.w3.org/1999/xlink" version="1.1"><path d="M0 163L26.7 165.2C53.3 167.3 106.7 171.7 160 177C213.3 182.3 266.7 188.7 320 189.8C373.3 191 426.7 187 480 183.3C533.3 179.7 586.7 176.3 640 183.5C693.3 190.7 746.7 208.3 800 207.2C853.3 206 906.7 186 933.3 176L960 166L960 301L933.3 301C906.7 301 853.3 301 800 301C746.7 301 693.3 301 640 301C586.7 301 533.3 301 480 301C426.7 301 373.3 301 320 301C266.7 301 213.3 301 160 301C106.7 301 53.3 301 26.7 301L0 301Z" fill="#ec4e20"></path><path d="M0 264L26.7 262.2C53.3 260.3 106.7 256.7 160 254.5C213.3 252.3 266.7 251.7 320 253.7C373.3 255.7 426.7 260.3 480 253.8C533.3 247.3 586.7 229.7 640 224.7C693.3 219.7 746.7 227.3 800 235.8C853.3 244.3 906.7 253.7 933.3 258.3L960 263L960 301L933.3 301C906.7 301 853.3 301 800 301C746.7 301 693.3 301 640 301C586.7 301 533.3 301 480 301C426.7 301 373.3 301 320 301C266.7 301 213.3 301 160 301C106.7 301 53.3 301 26.7 301L0 301Z" fill="#161414"></path></svg>