<svg id="visual" viewBox="0 0 960 300" width="960" height="300" xmlns="http://www.w3.org/2000/svg" xmlns:xlink="http://www.w3.org/1999/xlink" version="1.1"><path d="M0 241L26.7 240.3C53.3 239.7 106.7 238.3 160 227.2C213.3 216 266.7 195 320 196.2C373.3 197.3 426.7 220.7 480 222.3C533.3 224 586.7 204 640 187.7C693.3 171.3 746.7 158.7 800 162.8C853.3 167 906.7 188 933.3 198.5L960 209L960 301L933.3 301C906.7 301 853.3 301 800 301C746.7 301 693.3 301 640 301C586.7 301 533.3 301 480 301C426.7 301 373.3 301 320 301C266.7 301 213.3 301 160 301C106.7 301 53.3 301 26.7 301L0 301Z" fill="#ec4e20"></path><path d="M0 223L26.7 221.2C53.3 219.3 106.7 215.7 160 224.2C213.3 232.7 266.7 253.3 320 255.7C373.3 258 426.7 242 480 237.8C533.3 233.7 586.7 241.3 640 244.7C693.3 248 746.7 247 800 240.7C853.3 234.3 906.7 222.7 933.3 216.8L960 211L960 301L933.3 301C906.7 301 853.3 301 800 301C746.7 301 693.3 301 640 301C586.7 301 533.3 301 480 301C426.7 301 373.3 301 320 301C266.7 301 213.3 301 160 301C106.7 301 53.3 301 26.7 301L0 301Z" fill="#161414"></path></svg>