<svg id="visual" viewBox="0 0 960 300" width="960" height="300" xmlns="http://www.w3.org/2000/svg" xmlns:xlink="http://www.w3.org/1999/xlink" version="1.1"><path d="M0 145L14.5 161.7C29 178.3 58 211.7 87.2 224.3C116.3 237 145.7 229 174.8 229.7C204 230.3 233 239.7 262 235.7C291 231.7 320 214.3 349 213.8C378 213.3 407 229.7 436.2 237C465.3 244.3 494.7 242.7 523.8 238C553 233.3 582 225.7 611 226.8C640 228 669 238 698 227.2C727 216.3 756 184.7 785.2 173.7C814.3 162.7 843.7 172.3 872.8 171.7C902 171 931 160 945.5 154.5L960 149L960 301L945.5 301C931 301 902 301 872.8 301C843.7 301 814.3 301 785.2 301C756 301 727 301 698 301C669 301 640 301 611 301C582 301 553 301 523.8 301C494.7 301 465.3 301 436.2 301C407 301 378 301 349 301C320 301 291 301 262 301C233 301 204 301 174.8 301C145.7 301 116.3 301 87.2 301C58 301 29 301 14.5 301L0 301Z" fill="#ec4e20"></path><path d="M0 280L14.5 276.7C29 273.3 58 266.7 87.2 260.7C116.3 254.7 145.7 249.3 174.8 240C204 230.7 233 217.3 262 210C291 202.7 320 201.3 349 208.8C378 216.3 407 232.7 436.2 243.3C465.3 254 494.7 259 523.8 253.3C553 247.7 582 231.3 611 226.7C640 222 669 229 698 239C727 249 756 262 785.2 258.2C814.3 254.3 843.7 233.7 872.8 228.2C902 222.7 931 232.3 945.5 237.2L960 242L960 301L945.5 301C931 301 902 301 872.8 301C843.7 301 814.3 301 785.2 301C756 301 727 301 698 301C669 301 640 301 611 301C582 301 553 301 523.8 301C494.7 301 465.3 301 436.2 301C407 301 378 301 349 301C320 301 291 301 262 301C233 301 204 301 174.8 301C145.7 301 116.3 301 87.2 301C58 301 29 301 14.5 301L0 301Z" fill="#161414"></path></svg>