<svg id="visual" viewBox="0 0 960 300" width="960" height="300" xmlns="http://www.w3.org/2000/svg" xmlns:xlink="http://www.w3.org/1999/xlink" version="1.1"><path d="M0 157L14.5 162C29 167 58 177 87.2 185C116.3 193 145.7 199 174.8 193C204 187 233 169 262 164C291 159 320 167 349 180.8C378 194.7 407 214.3 436.2 225.3C465.3 236.3 494.7 238.7 523.8 239.7C553 240.7 582 240.3 611 225.3C640 210.3 669 180.7 698 169C727 157.3 756 163.7 785.2 173.5C814.3 183.3 843.7 196.7 872.8 192.8C902 189 931 168 945.5 157.5L960 147L960 301L945.5 301C931 301 902 301 872.8 301C843.7 301 814.3 301 785.2 301C756 301 727 301 698 301C669 301 640 301 611 301C582 301 553 301 523.8 301C494.7 301 465.3 301 436.2 301C407 301 378 301 349 301C320 301 291 301 262 301C233 301 204 301 174.8 301C145.7 301 116.3 301 87.2 301C58 301 29 301 14.5 301L0 301Z" fill="#ec4e20"></path><path d="M0 227L14.5 231.2C29 235.3 58 243.7 87.2 243.8C116.3 244 145.7 236 174.8 228C204 220 233 212 262 214.8C291 217.7 320 231.3 349 236.8C378 242.3 407 239.7 436.2 236C465.3 232.3 494.7 227.7 523.8 229.5C553 231.3 582 239.7 611 235.8C640 232 669 216 698 219.7C727 223.3 756 246.7 785.2 249.3C814.3 252 843.7 234 872.8 235.2C902 236.3 931 256.7 945.5 266.8L960 277L960 301L945.5 301C931 301 902 301 872.8 301C843.7 301 814.3 301 785.2 301C756 301 727 301 698 301C669 301 640 301 611 301C582 301 553 301 523.8 301C494.7 301 465.3 301 436.2 301C407 301 378 301 349 301C320 301 291 301 262 301C233 301 204 301 174.8 301C145.7 301 116.3 301 87.2 301C58 301 29 301 14.5 301L0 301Z" fill="#161414"></path></svg>