<svg id="visual" viewBox="0 0 960 300" width="960" height="300" xmlns="http://www.w3.org/2000/svg" xmlns:xlink="http://www.w3.org/1999/xlink" version="1.1"><path d="M0 235L14.5 234.8C29 234.7 58 234.3 87.2 236.5C116.3 238.7 145.7 243.3 174.8 236.5C204 229.7 233 211.3 262 211.5C291 211.7 320 230.3 349 226.5C378 222.7 407 196.3 436.2 186.3C465.3 176.3 494.7 182.7 523.8 189.2C553 195.7 582 202.3 611 205.7C640 209 669 209 698 206.5C727 204 756 199 785.2 204.3C814.3 209.7 843.7 225.3 872.8 231.5C902 237.7 931 234.3 945.5 232.7L960 231L960 301L945.5 301C931 301 902 301 872.8 301C843.7 301 814.3 301 785.2 301C756 301 727 301 698 301C669 301 640 301 611 301C582 301 553 301 523.8 301C494.7 301 465.3 301 436.2 301C407 301 378 301 349 301C320 301 291 301 262 301C233 301 204 301 174.8 301C145.7 301 116.3 301 87.2 301C58 301 29 301 14.5 301L0 301Z" fill="#ec4e20"></path><path d="M0 264L14.5 254.5C29 245 58 226 87.2 227.8C116.3 229.7 145.7 252.3 174.8 252.8C204 253.3 233 231.7 262 219.3C291 207 320 204 349 214.5C378 225 407 249 436.2 256.5C465.3 264 494.7 255 523.8 245.5C553 236 582 226 611 224.3C640 222.7 669 229.3 698 235.2C727 241 756 246 785.2 253.3C814.3 260.7 843.7 270.3 872.8 261.8C902 253.3 931 226.7 945.5 213.3L960 200L960 301L945.5 301C931 301 902 301 872.8 301C843.7 301 814.3 301 785.2 301C756 301 727 301 698 301C669 301 640 301 611 301C582 301 553 301 523.8 301C494.7 301 465.3 301 436.2 301C407 301 378 301 349 301C320 301 291 301 262 301C233 301 204 301 174.8 301C145.7 301 116.3 301 87.2 301C58 301 29 301 14.5 301L0 301Z" fill="#161414"></path></svg>