<svg id="visual" viewBox="0 0 960 300" width="960" height="300" xmlns="http://www.w3.org/2000/svg" xmlns:xlink="http://www.w3.org/1999/xlink" version="1.1">
<path d="M0 167L17.8 170.3C35.7 173.7 71.3 180.3 106.8 179.5C142.3 178.7 177.7 170.3 213.2 168C248.7 165.7 284.3 169.3 320 176.3C355.7 183.3 391.3 193.7 426.8 198.5C462.3 203.3 497.7 202.7 533.2 197.3C568.7 192 604.3 182 640 187.8C675.7 193.7 711.3 215.3 746.8 224.2C782.3 233 817.7 229 853.2 215.7C888.7 202.3 924.3 179.7 942.2 168.3L960 157L960 301L942.2 301C924.3 301 888.7 301 853.2 301C817.7 301 782.3 301 746.8 301C711.3 301 675.7 301 640 301C604.3 301 568.7 301 533.2 301C497.7 301 462.3 301 426.8 301C391.3 301 355.7 301 320 301C284.3 301 248.7 301 213.2 301C177.7 301 142.3 301 106.8 301C71.3 301 35.7 301 17.8 301L0 301Z" fill="#ec4e20"></path>
<path d="M0 209L17.8 219C35.7 229 71.3 249 106.8 261.8C142.3 274.7 177.7 280.3 213.2 280.8C248.7 281.3 284.3 276.7 320 275.8C355.7 275 391.3 278 426.8 273.8C462.3 269.7 497.7 258.3 533.2 259.8C568.7 261.3 604.3 275.7 640 279.7C675.7 283.7 711.3 277.3 746.8 268.7C782.3 260 817.7 249 853.2 245.2C888.7 241.3 924.3 244.7 942.2 246.3L960 248L960 301L942.2 301C924.3 301 888.7 301 853.2 301C817.7 301 782.3 301 746.8 301C711.3 301 675.7 301 640 301C604.3 301 568.7 301 533.2 301C497.7 301 462.3 301 426.8 301C391.3 301 355.7 301 320 301C284.3 301 248.7 301 213.2 301C177.7 301 142.3 301 106.8 301C71.3 301 35.7 301 17.8 301L0 301Z" fill="#161414"></path>
</svg>