<svg id="visual" viewBox="0 0 960 300" width="960" height="300" xmlns="http://www.w3.org/2000/svg" xmlns:xlink="http://www.w3.org/1999/xlink" version="1.1"><path d="M0 160L14.5 158.2C29 156.3 58 152.7 87.2 152.2C116.3 151.7 145.7 154.3 174.8 155.5C204 156.7 233 156.3 262 162.3C291 168.3 320 180.7 349 179.8C378 179 407 165 436.2 161.8C465.3 158.7 494.7 166.3 523.8 173.8C553 181.3 582 188.7 611 185.8C640 183 669 170 698 178.5C727 187 756 217 785.2 228.2C814.3 239.3 843.7 231.7 872.8 214.5C902 197.3 931 170.7 945.5 157.3L960 144L960 301L945.5 301C931 301 902 301 872.8 301C843.7 301 814.3 301 785.2 301C756 301 727 301 698 301C669 301 640 301 611 301C582 301 553 301 523.8 301C494.7 301 465.3 301 436.2 301C407 301 378 301 349 301C320 301 291 301 262 301C233 301 204 301 174.8 301C145.7 301 116.3 301 87.2 301C58 301 29 301 14.5 301L0 301Z" fill="#ec4e20"></path><path d="M0 211L14.5 211C29 211 58 211 87.2 217.5C116.3 224 145.7 237 174.8 242.2C204 247.3 233 244.7 262 246.3C291 248 320 254 349 248.5C378 243 407 226 436.2 225.7C465.3 225.3 494.7 241.7 523.8 243.2C553 244.7 582 231.3 611 232C640 232.7 669 247.3 698 246C727 244.7 756 227.3 785.2 220.3C814.3 213.3 843.7 216.7 872.8 222.7C902 228.7 931 237.3 945.5 241.7L960 246L960 301L945.5 301C931 301 902 301 872.8 301C843.7 301 814.3 301 785.2 301C756 301 727 301 698 301C669 301 640 301 611 301C582 301 553 301 523.8 301C494.7 301 465.3 301 436.2 301C407 301 378 301 349 301C320 301 291 301 262 301C233 301 204 301 174.8 301C145.7 301 116.3 301 87.2 301C58 301 29 301 14.5 301L0 301Z" fill="#161414"></path></svg>