<svg id="visual" viewBox="0 0 960 300" width="960" height="300" xmlns="http://www.w3.org/2000/svg" xmlns:xlink="http://www.w3.org/1999/xlink" version="1.1">
<path d="M0 219L17.8 210.3C35.7 201.7 71.3 184.3 106.8 180C142.3 175.7 177.7 184.3 213.2 196.3C248.7 208.3 284.3 223.7 320 223.7C355.7 223.7 391.3 208.3 426.8 200.5C462.3 192.7 497.7 192.3 533.2 196.8C568.7 201.3 604.3 210.7 640 217.3C675.7 224 711.3 228 746.8 224.3C782.3 220.7 817.7 209.3 853.2 210C888.7 210.7 924.3 223.3 942.2 229.7L960 236L960 301L942.2 301C924.3 301 888.7 301 853.2 301C817.7 301 782.3 301 746.8 301C711.3 301 675.7 301 640 301C604.3 301 568.7 301 533.2 301C497.7 301 462.3 301 426.8 301C391.3 301 355.7 301 320 301C284.3 301 248.7 301 213.2 301C177.7 301 142.3 301 106.8 301C71.3 301 35.7 301 17.8 301L0 301Z" fill="#ec4e20"></path><path d="M0 289L17.8 275C35.7 261 71.3 233 106.8 219.3C142.3 205.7 177.7 206.3 213.2 207.2C248.7 208 284.3 209 320 218.8C355.7 228.7 391.3 247.3 426.8 256.3C462.3 265.3 497.7 264.7 533.2 255.2C568.7 245.7 604.3 227.3 640 221.8C675.7 216.3 711.3 223.7 746.8 224.5C782.3 225.3 817.7 219.7 853.2 225.5C888.7 231.3 924.3 248.7 942.2 257.3L960 266L960 301L942.2 301C924.3 301 888.7 301 853.2 301C817.7 301 782.3 301 746.8 301C711.3 301 675.7 301 640 301C604.3 301 568.7 301 533.2 301C497.7 301 462.3 301 426.8 301C391.3 301 355.7 301 320 301C284.3 301 248.7 301 213.2 301C177.7 301 142.3 301 106.8 301C71.3 301 35.7 301 17.8 301L0 301Z" fill="#161414"></path></svg>